HIERARCHY
ROOT Hips
{
  OFFSET 0 0 0
  CHANNELS 6 Xposition Yposition Zposition Zrotation Yrotation Xrotation
  JOINT LeftThigh
  {
    OFFSET 8.409438 0 -5.917753
    CHANNELS 3 Zrotation Yrotation Xrotation
    JOINT LeftLeg
    {
      OFFSET 0 0 -42.358652
      CHANNELS 3 Zrotation Yrotation Xrotation
      JOINT LeftFoot
      {
        OFFSET 0 0 -39.357303
        CHANNELS 3 Zrotation Yrotation Xrotation
      }
    }
  }
  JOINT RightThigh
  {
    OFFSET -8.409438 0 -5.917753
    CHANNELS 3 Zrotation Yrotation Xrotation
    JOINT RightLeg
    {
      OFFSET 0 0 -42.358652
      CHANNELS 3 Zrotation Yrotation Xrotation
      JOINT RightFoot
      {
        OFFSET 0 0 -39.357303
        CHANNELS 3 Zrotation Yrotation Xrotation
      }
    }
  }
  JOINT SpineLow
  {
    OFFSET 0 0 4.719101
    CHANNELS 3 Zrotation Yrotation Xrotation
    JOINT SpineMid
    {
      OFFSET 0 0 12.899191
      CHANNELS 3 Zrotation Yrotation Xrotation
      JOINT Chest
      {
        OFFSET 0 0 12.899191
        CHANNELS 3 Zrotation Yrotation Xrotation
        JOINT LeftShoulder
        {
          OFFSET 7.550562 1.41573 9.438202
          CHANNELS 3 Zrotation Yrotation Xrotation
          JOINT LeftArm
          {
            OFFSET 9.155056 0 4.247191
            CHANNELS 3 Zrotation Yrotation Xrotation
            JOINT LeftForearm
            {
              OFFSET 0 0 25.771955
              CHANNELS 3 Zrotation Yrotation Xrotation
              JOINT LeftHand
              {
                OFFSET 0 0 25.197169
                CHANNELS 3 Zrotation Yrotation Xrotation
              }
            }
          }
        }
        JOINT RightShoulder
        {
          OFFSET -7.550562 1.41573 9.438202
          CHANNELS 3 Zrotation Yrotation Xrotation
          JOINT RightArm
          {
            OFFSET -9.155056 0 4.247191
            CHANNELS 3 Zrotation Yrotation Xrotation
            JOINT RightForearm
            {
              OFFSET 0 0 -25.771955
              CHANNELS 3 Zrotation Yrotation Xrotation
              JOINT RightHand
              {
                OFFSET 0 0 -25.197169
                CHANNELS 3 Zrotation Yrotation Xrotation
              }
            }
          }
        }
        JOINT Neck
        {
          OFFSET 0 0 15.101124
          CHANNELS 3 Zrotation Yrotation Xrotation
          JOINT Head
          {
            OFFSET 0 0 11.325843
            CHANNELS 3 Zrotation Yrotation Xrotation
            End Site
            {
              OFFSET 0 0 14.157303
            }
          }
        }
      }
    }
  }
}
MOTION
Frames: 11
Frame Time: 0.0
0.0  101.685394  0.0  1.506144  -44.883436  -103.568832  34.675426  -31.384508  -36.882029  15.27603  9.055356  72.153681  -3.447126  4.368106  -0.961657  -0.528374  24.39644  -1.627726  -2.661378  9.092352  33.376283  6.075689  8.537724  -6.334307  0.543559  0.269827  3.468817  1.520946  0.65791  9.487471  1.520946  0.65791  9.48747  -3.201083  23.192035  -0.825549  -124.859052  58.170385  -98.054  -26.865712  -15.016465  99.266184  114.628262  32.47646  -14.116176  5.398405  -10.209751  13.643926  94.876274  25.389752  43.630182  7.874208  14.904718  -83.102226  48.750261  11.259882  19.57379  10.497369  -0.381607  -4.640913  7.870641  -0.366088  -3.475333  
0.0  101.685394  0.0  1.539136  -44.107333  -103.531345  34.405738  -31.504246  -36.886891  15.422634  9.148371  71.836001  -3.392434  4.353696  -0.667834  -0.804115  23.994683  -1.418978  -3.270481  10.115026  33.443948  6.50389  8.444932  -6.387614  0.483597  0.268863  3.450478  1.357119  0.664263  9.436775  1.357119  0.664263  9.436775  -3.325248  23.18027  -0.805809  -125.343357  58.026808  -98.145859  -26.753808  -15.134858  99.063023  114.791609  32.441152  -13.545325  5.360043  -10.101043  13.641789  94.747686  25.116182  43.66656  7.912427  14.953242  -83.446  48.467189  10.95685  19.809557  10.486247  -0.319987  -4.491182  7.862819  -0.317197  -3.364063  
0.0  101.685394  0.0  1.532603  -43.318692  -103.569603  34.194074  -31.666726  -36.788591  15.57464  8.969264  71.550857  -3.436944  4.363266  -0.366142  -0.624152  23.62261  -0.770825  -3.949049  10.734356  33.259931  6.823067  8.566572  -6.457525  0.421278  0.272207  3.451937  1.187662  0.68224  9.440249  1.187662  0.68224  9.440249  -3.552646  23.113452  -0.877748  -125.264263  57.85922  -98.348482  -26.634386  -15.188344  99.33036  114.972508  32.220056  -12.595193  5.254951  -10.098101  13.565165  94.779356  24.966767  43.786266  7.75807  15.383294  -83.397403  48.442734  10.465055  20.048315  10.460878  -0.315214  -4.390948  7.843857  -0.311711  -3.28895  
0.0  101.685394  0.0  1.487586  -42.425017  -103.579336  34.010429  -31.696966  -36.735452  15.48889  8.640236  71.229292  -3.785383  4.422263  -0.199333  -0.199815  23.242835  0.178497  -4.740712  10.906165  32.849781  6.101077  8.81913  -6.532118  0.347345  0.280642  3.449902  0.987227  0.715818  9.434112  0.987227  0.715818  9.434112  -3.722481  23.142642  -0.965705  -125.374205  57.854966  -98.154437  -26.470261  -15.75486  99.341655  115.180949  31.864266  -11.48542  5.013514  -10.136857  13.428712  94.951466  24.892869  43.927246  7.525029  16.179741  -83.127092  48.580425  9.86055  20.352192  10.389949  -0.382124  -4.339313  7.790188  -0.360523  -3.249089  
0.0  101.685394  0.0  1.492252  -41.611001  -103.620566  34.037029  -31.610104  -36.67309  15.133865  8.573951  70.69675  -3.966481  4.442885  0.022674  0.625069  22.952894  1.399411  -5.807923  10.535777  32.467271  5.155081  9.482712  -6.794792  0.260895  0.29925  3.439782  0.754009  0.779004  9.405808  0.754009  0.779004  9.405807  -3.664072  23.206127  -0.998014  -125.448393  57.909872  -97.917124  -26.37737  -16.284155  99.423431  115.428468  31.462606  -10.385099  4.91304  -10.200906  13.324481  95.156194  24.922359  44.124949  7.275928  17.043152  -82.925458  48.903548  9.207249  20.767936  10.380374  -0.486182  -4.318725  7.782262  -0.438179  -3.231871  
0.0  101.685394  0.0  1.535683  -40.809335  -103.705378  34.129612  -31.411963  -36.573384  14.678598  8.619274  70.180571  -3.994747  4.430227  0.227881  1.578067  22.56468  2.718396  -6.789317  10.44115  31.827349  4.267645  9.938371  -6.835331  0.163966  0.317548  3.422497  0.492053  0.842813  9.357629  0.492053  0.842813  9.357629  -3.507214  23.363339  -0.947431  -125.484684  58.014216  -97.598807  -26.368196  -16.733361  99.509205  115.708247  31.101987  -9.441357  4.868491  -10.197087  13.292475  95.356751  25.018324  44.313388  7.060003  17.871963  -82.902698  49.238625  8.560429  21.271344  10.39617  -0.578073  -4.296412  7.793457  -0.506857  -3.21355  
0.0  101.685394  0.0  1.605247  -40.024783  -103.852254  34.091056  -31.075488  -36.443736  13.93758  9.052403  69.454784  -3.729775  4.41435  0.469179  2.098428  22.079157  3.75674  -7.321628  10.627511  31.290877  3.412745  10.26753  -6.79639  0.061167  0.339161  3.40512  0.214514  0.916352  9.308956  0.214514  0.916351  9.308955  -3.182707  23.546103  -0.80234  -125.619397  58.168588  -97.306138  -26.461527  -17.051751  99.617507  115.950523  30.841112  -8.764318  4.885123  -10.149855  13.286762  95.579059  25.163093  44.451708  6.845443  18.394078  -82.994971  49.560872  8.033696  21.698952  10.358683  -0.701298  -4.271206  7.764467  -0.598619  -3.192565  
0.0  101.685394  0.0  1.658317  -39.255352  -103.970408  34.153124  -30.72049  -36.263477  13.206076  9.464851  68.781028  -3.419175  4.356593  0.69226  3.040134  21.474821  4.713617  -8.244796  11.012449  30.990462  2.641921  10.530787  -6.717167  -0.037889  0.355844  3.390429  -0.053516  0.975772  9.267459  -0.053516  0.975771  9.267458  -2.839171  23.699761  -0.666251  -125.92602  58.312032  -97.138287  -26.610098  -17.2825  99.711643  116.091539  30.67776  -8.368508  4.985603  -10.046976  13.344947  95.743092  25.456019  44.499526  6.686083  18.677944  -83.144757  49.734518  7.644598  22.032899  10.400373  -0.725074  -4.254018  7.79558  -0.616459  -3.179223  
0.0  101.685394  0.0  1.70309  -38.463367  -104.042639  33.956584  -30.304582  -36.109708  12.476278  9.941294  67.998412  -3.028503  4.305409  0.98728  3.732004  20.974429  5.349712  -9.064629  11.359249  30.969718  2.053976  10.692985  -6.600966  -0.125928  0.368209  3.361203  -0.292361  1.021706  9.186241  -0.292361  1.021706  9.186241  -2.479362  23.832163  -0.423179  -126.397596  58.428847  -97.105501  -26.781896  -17.40306  99.804232  116.149235  30.567175  -8.197723  5.060372  -9.93749  13.507491  95.864172  25.824165  44.48948  6.716422  19.144826  -83.369643  49.407756  7.391187  22.458671  10.317899  -0.773075  -4.212629  7.733417  -0.651196  -3.147434  
0.0  101.685394  0.0  1.729726  -37.715705  -104.094653  33.662737  -29.957175  -35.898486  11.982299  10.179133  67.363771  -2.768429  4.23738  1.227365  4.192689  20.598432  5.729875  -9.763571  11.672382  31.162321  1.803637  10.819335  -6.485567  -0.214062  0.365129  3.331834  -0.533643  1.02531  9.104592  -0.533643  1.02531  9.104592  -2.062082  23.997142  -0.167683  -127.043743  58.494403  -97.212499  -26.952774  -17.433239  99.842027  116.151993  30.455823  -8.213218  5.344173  -9.717989  13.748401  95.852072  26.280903  44.392155  6.793792  19.738265  -83.482714  48.847693  7.24633  22.922114  10.386192  -0.670431  -4.127506  7.785452  -0.573208  -3.085256  
0.0  101.685394  0.0  1.822288  -36.858327  -104.119913  32.954087  -29.529639  -35.700684  11.733327  10.280536  66.840285  -2.519195  4.140017  1.479731  4.200409  20.46253  5.845442  -10.260482  11.935985  31.423383  1.80233  10.902509  -6.376321  -0.309444  0.36567  3.305076  -0.794169  1.039596  9.029927  -0.794169  1.039596  9.029928  -1.630428  24.136239  0.036905  -127.869163  58.609717  -97.450505  -27.212106  -17.30122  99.875027  116.141128  30.319  -8.378554  5.61908  -9.502288  13.915192  94.345037  27.660058  43.589273  6.688559  20.206997  -83.977145  48.882706  6.126979  22.386006  10.347644  -0.563018  -4.092223  7.757316  -0.491756  -3.060649  
